<?xml version="1.0" encoding="UTF-8" standalone="no"?>
<!-- Created with Inkscape (http://www.inkscape.org/) -->

<svg
   width="14.781013mm"
   height="14.710254mm"
   viewBox="0 0 14.781013 14.710254"
   version="1.1"
   id="svg1"
   inkscape:version="1.3 (1:1.3+202307231459+0e150ed6c4)"
   sodipodi:docname="x.svg"
   xmlns:inkscape="http://www.inkscape.org/namespaces/inkscape"
   xmlns:sodipodi="http://sodipodi.sourceforge.net/DTD/sodipodi-0.dtd"
   xmlns="http://www.w3.org/2000/svg"
   xmlns:svg="http://www.w3.org/2000/svg">
  <sodipodi:namedview
     id="namedview1"
     pagecolor="#000000"
     bordercolor="#000000"
     borderopacity="1"
     inkscape:showpageshadow="0"
     inkscape:pageopacity="0"
     inkscape:pagecheckerboard="0"
     inkscape:deskcolor="#d1d1d1"
     inkscape:document-units="mm"
     inkscape:zoom="6.0079124"
     inkscape:cx="-12.06742"
     inkscape:cy="12.233867"
     inkscape:window-width="2560"
     inkscape:window-height="1043"
     inkscape:window-x="1920"
     inkscape:window-y="0"
     inkscape:window-maximized="1"
     inkscape:current-layer="layer1" />
  <defs
     id="defs1" />
  <g
     inkscape:label="Layer 1"
     inkscape:groupmode="layer"
     id="layer1"
     transform="translate(-85.725007,-75.406152)">
    <path
       style="fill:#ffffff;fill-opacity:1;stroke-width:0.187128"
       d="m 92.30543,90.0742 c -2.68619,-0.3008 -5.03752,-2.1025 -6.03326,-4.6229 -0.40601,-1.0276 -0.58582,-2.2581 -0.48379,-3.3103 0.1759,-1.8142 0.88137,-3.3301 2.1348,-4.5874 1.05956,-1.0628 2.40307,-1.7687 3.9119,-2.0552 0.6479,-0.123 1.92666,-0.123 2.57458,0 1.03361,0.1963 1.93632,0.5648 2.81159,1.1476 1.66283,1.1074 2.7678,2.8012 3.16118,4.8459 0.11767,0.6114 0.11767,1.9135 0,2.525 -0.44177,2.2962 -1.77132,4.1306 -3.79428,5.2353 -1.23732,0.6756 -2.84095,0.9835 -4.28272,0.822 z m -1.41175,-4.6486 c 1.21337,-1.3129 1.5693,-1.6706 1.6087,-1.6174 0.0278,0.038 0.59619,0.7964 1.26304,1.6858 l 1.21243,1.6174 h 1.37453 c 1.06736,0 1.37421,-0.014 1.37312,-0.062 0,-0.034 -0.8356,-1.1737 -1.85518,-2.5326 l -1.85375,-2.4707 0.53599,-0.5743 c 1.85695,-1.9892 2.76985,-3.0036 2.73478,-3.0387 -0.0221,-0.022 -0.2156,-0.034 -0.43005,-0.026 l -0.38982,0.014 -1.39937,1.5101 c -0.76966,0.8306 -1.42056,1.5101 -1.44649,1.5101 -0.0259,0 -0.56121,-0.6851 -1.18953,-1.5225 l -1.14242,-1.5225 h -1.38591 c -0.76225,0 -1.38592,0.018 -1.38592,0.041 0,0.031 2.27426,3.1069 2.51353,3.3999 0.25921,0.3172 0.96686,1.2899 0.97126,1.335 0.003,0.033 -0.77406,0.9014 -1.72714,1.9311 -0.9531,1.0297 -1.7401,1.9024 -1.74891,1.9395 -0.0125,0.053 0.0739,0.067 0.39651,0.067 h 0.4125 z m 1.68228,-2.6461 c -1.49672,-2.0014 -2.72134,-3.6502 -2.72134,-3.6639 0,-0.014 0.2517,-0.025 0.55931,-0.025 h 0.55932 l 2.67129,3.5726 c 1.4692,1.9651 2.7004,3.6139 2.73599,3.664 0.0617,0.087 0.0385,0.091 -0.50926,0.091 h -0.57399 z"
       id="path73" />
  </g>
</svg>
